<svg width="33" height="32" viewBox="0 0 33 32" fill="none" xmlns="http://www.w3.org/2000/svg">
<g clip-path="url(#clip0_1_29)">
<path d="M6.63043 22.202C6.9668 22.035 7.6194 21.712 7.6194 20.561C7.6194 19.735 7.11384 18.506 5.13488 18.506H1.21423V26.519H4.63133C6.28399 26.519 6.72208 26.24 7.18232 25.791C7.60732 25.381 7.87722 24.776 7.87722 24.143C7.87722 23.35 7.6194 22.569 6.63043 22.202ZM2.83365 19.893H4.76729C5.53067 19.893 6.003 20.093 6.003 20.751C6.003 21.389 5.47629 21.645 4.8106 21.645H2.83365V19.893ZM4.89922 25.135H2.83365V22.992H4.97979C5.58808 22.992 6.19335 23.263 6.19335 23.963C6.19133 24.776 5.719 25.135 4.89922 25.135Z" fill="#E9ECE0"/>
<path d="M1.21521 27.788V28.516H2.46402V31.893H3.32509V28.516H4.57692V27.788H1.21521Z" fill="#E9ECE0"/>
<path d="M29.0012 21.787L32.2944 18.505H30.115L27.0353 21.762V18.505H25.3494V26.516H27.0353V23.805L27.8219 23.001L30.3154 26.516H32.4847L29.0012 21.787Z" fill="#E9ECE0"/>
<path d="M13.1846 18.505H11.2409L8.36664 26.517H10.1412L10.7021 24.867H13.6801L14.1978 26.516H16.0287L13.1846 18.505ZM11.1513 23.481L12.1856 20.313H12.2087L13.2078 23.481H11.1513Z" fill="#E9ECE0"/>
<path d="M20.7057 2.805C20.2001 2.212 19.6432 1.659 18.9886 1.18C18.6643 0.938 18.3179 0.715 17.9382 0.515C17.5555 0.319 17.1637 0.13 16.6954 0C16.7035 0.483 16.7881 0.908 16.8878 1.324C16.9824 1.728 17.1103 2.107 17.2594 2.471C16.9029 2.575 16.4698 2.721 15.9824 2.909C15.6672 3.049 15.3217 3.175 14.9733 3.362C14.6198 3.53 14.2613 3.734 13.8977 3.962C13.5281 4.169 13.1837 4.463 12.8221 4.717C12.4928 5.028 12.1312 5.297 11.8382 5.65C11.535 5.988 11.2389 6.326 11.0103 6.71C10.8945 6.897 10.7606 7.07 10.6639 7.261C10.5712 7.455 10.4826 7.648 10.396 7.836C10.1996 8.2 10.11 8.592 10.0073 8.949C9.88539 9.303 9.84209 9.65 9.80885 9.97C9.78166 10.289 9.71419 10.571 9.7303 10.831C9.73836 11.087 9.7444 11.309 9.75044 11.493C9.76152 11.856 9.76454 12.063 9.76454 12.063C9.76454 12.063 9.80382 11.858 9.87029 11.501C9.90352 11.324 9.94481 11.111 9.99215 10.865C10.0294 10.62 10.1573 10.36 10.2459 10.073C10.3406 9.786 10.4504 9.48 10.6317 9.186C10.7968 8.887 10.9469 8.564 11.1906 8.285C11.3004 8.142 11.4132 7.994 11.525 7.847C11.6428 7.704 11.7939 7.581 11.9238 7.447C12.1796 7.17 12.4918 6.946 12.801 6.724C13.096 6.491 13.4556 6.334 13.7668 6.143C14.1213 6.002 14.4335 5.826 14.7819 5.724C15.1143 5.604 15.4416 5.503 15.7618 5.431C16.073 5.341 16.3862 5.301 16.6592 5.243C16.8344 5.218 16.9955 5.197 17.1506 5.178C17.1325 5.224 17.1134 5.268 17.0973 5.315C16.9381 5.748 16.8143 6.203 16.7276 6.682C16.6884 6.925 16.6561 7.171 16.631 7.422C16.6108 7.677 16.6068 7.941 16.6249 8.219C16.8878 8.119 17.1265 8.006 17.3531 7.883C17.5716 7.756 17.7861 7.624 17.9906 7.488C18.3964 7.211 18.762 6.91 19.0923 6.588C19.761 5.946 20.3139 5.229 20.7782 4.458L20.8376 4.36C21.1226 3.881 21.0894 3.254 20.7057 2.805Z" fill="#E9ECE0"/>
<path d="M8.36766 30.965C8.36766 30.199 8.18235 30.073 7.84296 29.925C8.25184 29.788 8.48247 29.401 8.48247 28.946C8.48247 28.592 8.28205 27.787 7.1823 27.787H5.09155V31.89H5.93953V30.285H6.83082C7.47033 30.285 7.50558 30.503 7.50558 31.061C7.50558 31.483 7.53881 31.697 7.59622 31.889H8.55196V31.782C8.36766 31.714 8.36766 31.564 8.36766 30.965ZM6.94865 29.596H5.93853V28.496H7.01411C7.51968 28.496 7.61837 28.814 7.61837 29.033C7.61737 29.437 7.39983 29.596 6.94865 29.596Z" fill="#E9ECE0"/>
<path d="M24.2406 28.516V27.788H21.2999V31.894H22.164V30.168H23.9828V29.442H22.164V28.516H24.2406Z" fill="#E9ECE0"/>
<path d="M25.6666 31.165V30.105H27.6808V29.379H25.6666V28.517H27.8611V27.79H24.8207V31.893H27.9578V31.165H25.6666Z" fill="#E9ECE0"/>
<path d="M19.5596 29.553L18.5545 29.307C18.3813 29.266 18.1154 29.197 18.1154 28.877C18.1154 28.506 18.5092 28.387 18.8355 28.387C19.5908 28.387 19.6603 28.82 19.6834 29.003H20.5093C20.5032 28.5 20.1648 27.678 18.8979 27.678C17.5564 27.678 17.3097 28.483 17.3097 28.94C17.3097 29.844 17.9532 29.995 18.6219 30.147L19.0641 30.251C19.5001 30.356 19.8123 30.44 19.8123 30.762C19.8123 31.191 19.3561 31.291 18.9503 31.291C18.1949 31.291 18.0791 30.857 18.0731 30.628H17.2473C17.2473 31.139 17.5041 32 19.0127 32C19.3732 32 20.6412 31.888 20.6412 30.657C20.6402 29.92 20.1225 29.689 19.5596 29.553Z" fill="#E9ECE0"/>
<path d="M31.9379 30.965C31.9379 30.199 31.7506 30.073 31.4132 29.925C31.8201 29.788 32.0547 29.401 32.0547 28.946C32.0547 28.592 31.8523 27.787 30.7525 27.787H28.6638V31.89H29.5118V30.285H30.4031C31.0406 30.285 31.0778 30.503 31.0778 31.061C31.0778 31.483 31.1111 31.697 31.1695 31.889H32.1222V31.782C31.9379 31.714 31.9379 31.564 31.9379 30.965ZM30.5219 29.596H29.5108V28.496H30.5844C31.0919 28.496 31.1906 28.814 31.1906 29.033C31.1906 29.437 30.9721 29.596 30.5219 29.596Z" fill="#E9ECE0"/>
<path d="M22.031 18.5081V24.0861H22.0099L18.8063 18.5081H17.0308V26.5201H18.6039L18.6059 20.8081H18.627L21.9202 26.5211H23.6041V18.5081H22.031Z" fill="#E9ECE0"/>
<path d="M11.2842 27.788H10.2862L8.81281 31.891H9.72322L10.0102 31.044H11.535L11.8009 31.891H12.7395L11.2842 27.788ZM10.2419 30.336L10.7726 28.714H10.7807L11.2963 30.336H10.2419Z" fill="#E9ECE0"/>
<path d="M15.8182 27.788L15.8172 30.644H15.8072L14.1646 27.788H13.2562V31.891H14.0608V28.964H14.0739L15.7598 31.891H16.6249V27.788H15.8182Z" fill="#E9ECE0"/>
<path d="M22.8488 5.66004C22.8296 5.29804 22.8135 5.09204 22.8135 5.09204C22.8135 5.09204 22.7843 5.29704 22.7229 5.65604C22.6937 5.83304 22.6605 6.04804 22.6212 6.29504C22.591 6.54104 22.4711 6.80404 22.3906 7.09404C22.307 7.38404 22.2073 7.69204 22.034 7.99204C21.8789 8.29604 21.739 8.62204 21.5033 8.90904C21.3986 9.05604 21.2908 9.20604 21.184 9.35804C21.0682 9.50304 20.9232 9.63104 20.7933 9.76904C20.5476 10.052 20.2424 10.287 19.9393 10.517C19.6543 10.759 19.2977 10.925 18.9916 11.126C18.6431 11.277 18.336 11.463 17.9905 11.574C17.6632 11.705 17.3379 11.815 17.0197 11.896C16.7125 11.996 16.4023 12.045 16.1304 12.11C15.9562 12.141 15.794 12.167 15.641 12.19C15.6551 12.143 15.6742 12.099 15.6903 12.052C15.8353 11.613 15.9461 11.155 16.0186 10.674C16.0498 10.43 16.073 10.183 16.0911 9.93104C16.1042 9.67604 16.1002 9.41104 16.075 9.13504C15.8152 9.24104 15.5795 9.36204 15.3569 9.49204C15.1404 9.62504 14.934 9.76304 14.7315 9.90504C14.3368 10.194 13.9802 10.505 13.66 10.838C13.0114 11.499 12.4807 12.232 12.0396 13.017L11.9821 13.115C11.7112 13.603 11.7636 14.228 12.1614 14.666C12.6851 15.243 13.2592 15.78 13.9259 16.239C14.2562 16.472 14.6097 16.684 14.9974 16.872C15.3831 17.058 15.7799 17.236 16.2543 17.351C16.2291 16.87 16.1304 16.448 16.0226 16.035C15.9149 15.634 15.7769 15.258 15.6158 14.899C15.9703 14.784 16.3963 14.626 16.8787 14.424C17.1889 14.276 17.5303 14.138 17.8737 13.941C18.2201 13.764 18.5746 13.549 18.9261 13.31C19.2887 13.092 19.625 12.788 19.9806 12.523C20.2998 12.204 20.6533 11.922 20.9363 11.562C21.2294 11.215 21.5134 10.87 21.7309 10.479C21.8417 10.288 21.9676 10.111 22.0602 9.91704C22.1448 9.72004 22.2294 9.52504 22.31 9.33404C22.4953 8.96404 22.5738 8.56904 22.6665 8.21004C22.7753 7.85404 22.8115 7.50504 22.8337 7.18504C22.8548 6.86604 22.9102 6.58104 22.8881 6.32204C22.8709 6.06704 22.8589 5.84404 22.8488 5.66004Z" fill="#E9ECE0"/>
</g>
<defs>
<clipPath id="clip0_1_29">
<rect width="32.2273" height="32" fill="white" transform="translate(0.73584)"/>
</clipPath>
</defs>
</svg>
