<svg width="50" height="49" viewBox="0 0 50 49" fill="none" xmlns="http://www.w3.org/2000/svg">
<g clip-path="url(#clip0_1_88)">
<path d="M34.6669 9.71594C30.8993 9.71694 27.4651 11.1349 24.8768 13.4639C22.2866 11.1379 18.8544 9.71894 15.0908 9.71894C15.0596 9.71894 15.0274 9.71894 14.9972 9.71894C6.98266 9.77094 0.492889 16.2449 0.492889 24.2139C0.492889 32.2149 7.03301 38.7079 15.0898 38.7079C18.8534 38.7079 22.2856 37.2909 24.8748 34.9629C24.334 34.4779 23.8446 33.9409 23.3823 33.3789H26.3966C25.9424 33.9319 25.4469 34.4499 24.9141 34.9319H24.9121C24.9 34.9449 24.8869 34.9529 24.8748 34.9639C27.4661 37.2939 30.9023 38.7139 34.6719 38.7129C42.7338 38.7099 49.2669 32.2179 49.2648 24.2139C49.2648 24.2109 49.2648 24.2089 49.2648 24.2069C49.2658 16.2029 42.7287 9.71394 34.6669 9.71594ZM23.5495 14.9609H26.3241C26.7329 15.4529 27.1126 15.9709 27.457 16.5129H22.5071C22.8264 15.9949 23.1769 15.4619 23.5495 14.9609ZM21.6451 18.0349H28.299C28.5357 18.5369 28.7451 19.0559 28.9284 19.5879H20.8565C20.9371 19.4379 21.2191 18.8339 21.6451 18.0349ZM6.45191 27.9059L7.33716 22.3639L5.34007 27.9059H4.26952L4.13054 22.3639L3.18487 27.9059H1.6853L2.92806 20.5559H5.19606L5.27562 25.0659L6.80742 20.5559H9.26777L8.04213 27.9059H6.45191ZM11.7543 27.8939L11.8057 27.3069C11.7815 27.3099 11.3082 28.0159 10.2114 28.0159C9.63738 28.0159 8.71084 27.7049 8.71084 26.3529C8.71084 24.6339 10.1228 24.0639 11.4673 24.0639C11.6788 24.0639 12.135 24.1019 12.135 24.1019C12.135 24.1019 12.1864 23.9969 12.1864 23.7129C12.1864 23.2459 11.7634 23.1819 11.1843 23.1819C10.1641 23.1819 9.49034 23.4529 9.49034 23.4529L9.71593 22.1229C9.71593 22.1229 10.5337 21.7829 11.5982 21.7829C12.1491 21.7829 13.7333 21.8409 13.7333 23.6439L13.123 27.8939H11.7543ZM17.5381 26.0219C17.5381 28.0729 15.537 27.9849 15.1875 27.9849C13.8833 27.9849 13.4805 27.8059 13.4432 27.7959L13.6507 26.4459C13.6527 26.4339 14.3053 26.6809 15.0314 26.6809C15.4504 26.6809 15.9942 26.6399 15.9942 26.1429C15.9942 25.3989 14.0485 25.5769 14.0485 23.8099C14.0485 22.2509 15.2147 21.7949 16.3648 21.7949C17.2531 21.7949 17.7989 21.9159 17.7989 21.9159L17.6026 23.2779C17.6026 23.2779 16.7596 23.2089 16.5411 23.2089C15.9882 23.2089 15.687 23.3289 15.687 23.7129C15.686 24.4849 17.5381 24.1069 17.5381 26.0219ZM19.941 26.5599C20.079 26.5599 20.2351 26.5129 20.3419 26.5129L20.1475 27.8239C19.9914 27.8669 19.5493 28.0229 18.9823 28.0269C18.2582 28.0329 17.7435 27.6309 17.7435 26.7189C17.7435 26.1069 18.6268 21.0639 18.661 21.0309H20.215L20.0569 21.9329H20.8323L20.6339 23.3859H19.8111L19.374 26.0629C19.3408 26.2759 19.4002 26.5599 19.941 26.5599ZM23.3591 21.7629C25.0652 21.7629 25.5758 23.0029 25.5758 24.0199C25.5758 24.4269 25.3703 25.4269 25.3703 25.4269H22.2121C22.2121 25.4269 21.92 26.6619 23.5888 26.6619C24.3713 26.6619 25.2394 26.2819 25.2394 26.2819L24.9655 27.7689C24.9655 27.7689 24.4639 28.0229 23.3239 28.0229C22.0882 28.0229 20.639 27.5039 20.639 25.3239C20.64 23.4349 21.7961 21.7629 23.3591 21.7629ZM27.4752 31.8859H22.2967C21.9814 31.3859 21.6874 30.8729 21.4346 30.3339H28.3262C28.0724 30.8699 27.7884 31.3879 27.4752 31.8859ZM27.1277 27.9169H25.5325L26.5023 21.9349H27.9495L27.8105 22.8019C27.8105 22.8019 28.3262 21.8589 29.0221 21.8589C29.2245 21.8589 29.3222 21.8789 29.3222 21.8789C29.1157 22.2969 28.9335 22.6799 28.7441 23.6689C27.6645 23.2889 27.5819 25.3619 27.1277 27.9169ZM33.2056 27.8239C33.2056 27.8239 32.3697 28.0359 31.846 28.0359C29.9909 28.0359 29.0493 26.7649 29.0493 24.8399C29.0493 21.9369 30.7946 20.3909 32.5882 20.3909C33.3989 20.3909 34.3386 20.7689 34.3386 20.7689L34.0848 22.4039C34.0848 22.4039 33.4493 21.9629 32.6587 21.9629C31.6013 21.9629 30.6526 22.9649 30.6526 24.7859C30.6526 25.6829 31.0947 26.5189 32.1985 26.5189C32.7232 26.5189 33.4835 26.1399 33.4835 26.1399L33.2056 27.8239ZM36.947 27.8969L36.9993 27.3059C36.9742 27.3089 36.5008 28.0149 35.4051 28.0149C34.831 28.0149 33.9045 27.7039 33.9045 26.3519C33.9045 24.6329 35.3165 24.0629 36.6599 24.0629C36.8714 24.0629 37.3287 24.1009 37.3287 24.1009C37.3287 24.1009 37.381 23.9969 37.381 23.7129C37.381 23.2459 36.958 23.1819 36.378 23.1819C35.3578 23.1819 34.685 23.4529 34.685 23.4529L34.9106 22.1229C34.9106 22.1229 35.7284 21.7829 36.7939 21.7829C37.3438 21.7829 38.9289 21.8409 38.9279 23.6439L38.3176 27.8939C38.3166 27.8969 36.947 27.8969 36.947 27.8969ZM40.1767 27.9169H38.5815L39.5513 21.9349H40.9995L40.8606 22.8019C40.8606 22.8019 41.3772 21.8589 42.0731 21.8589C42.2755 21.8589 42.3722 21.8789 42.3722 21.8789C42.1668 22.2969 41.9825 22.6799 41.7942 23.6689C40.7135 23.2889 40.6309 25.3619 40.1767 27.9169ZM44.9393 27.9009L45.0068 27.3499C45.0068 27.3499 44.4912 27.9959 43.5586 27.9959C42.2665 27.9959 41.633 26.7569 41.633 25.4909C41.633 23.5329 42.8194 21.8259 44.2434 21.8259C45.1599 21.8279 45.745 22.6309 45.745 22.6309L46.0814 20.5659L47.6394 20.5629L46.451 27.9009H44.9393ZM48.013 27.6939C47.9717 27.7679 47.9133 27.8249 47.8388 27.8689C47.7653 27.9099 47.6867 27.9309 47.6041 27.9309C47.5236 27.9309 47.446 27.9099 47.3715 27.8689C47.297 27.8249 47.2385 27.7679 47.1973 27.6939C47.155 27.6189 47.1348 27.5429 47.1348 27.4619C47.1348 27.3799 47.156 27.3019 47.1973 27.2279C47.2385 27.1539 47.3 27.0939 47.3735 27.0539C47.45 27.0129 47.5256 26.9919 47.6041 26.9919C47.6847 26.9919 47.7612 27.0129 47.8358 27.0539C47.9123 27.0949 47.9707 27.1519 48.013 27.2279C48.0563 27.3029 48.0755 27.3809 48.0755 27.4619C48.0755 27.5429 48.0553 27.6199 48.013 27.6939Z" fill="#E9ECE0"/>
<path d="M47.8881 32.117C47.8781 32.11 47.869 32.099 47.8529 32.093C47.8368 32.087 47.8116 32.084 47.7723 32.084H47.6776V32.234H47.7784C47.8257 32.234 47.8569 32.23 47.875 32.213C47.8922 32.199 47.9002 32.182 47.9002 32.158C47.9002 32.142 47.8962 32.131 47.8881 32.117Z" fill="#E9ECE0"/>
<path d="M48.2134 32.027C48.1701 31.949 48.1107 31.894 48.0352 31.853C47.9596 31.812 47.8831 31.791 47.8045 31.791C47.724 31.791 47.6474 31.812 47.5729 31.853C47.4984 31.894 47.437 31.951 47.3957 32.027C47.3524 32.101 47.3332 32.179 47.3332 32.259C47.3332 32.339 47.3544 32.418 47.3957 32.491C47.439 32.565 47.4974 32.625 47.5709 32.666C47.6454 32.707 47.724 32.728 47.8066 32.728C47.8871 32.728 47.9657 32.707 48.0392 32.666C48.1127 32.625 48.1721 32.565 48.2134 32.491C48.2557 32.418 48.2759 32.34 48.2759 32.259C48.2759 32.178 48.2547 32.1 48.2134 32.027ZM47.9234 32.519L47.8791 32.44C47.8438 32.378 47.8146 32.337 47.7925 32.321C47.7784 32.311 47.7562 32.303 47.728 32.303H47.6807V32.518H47.5981V32.013H47.7733C47.8338 32.013 47.8771 32.018 47.9012 32.028C47.9284 32.038 47.9516 32.052 47.9657 32.077C47.9818 32.1 47.9888 32.125 47.9888 32.151C47.9888 32.188 47.9747 32.219 47.9496 32.248C47.9234 32.274 47.8871 32.291 47.8438 32.294C47.862 32.3 47.8761 32.31 47.8871 32.321C47.9083 32.341 47.9324 32.374 47.9627 32.42L48.0251 32.519H47.9234Z" fill="#E9ECE0"/>
<path d="M11.5932 25.2111C10.4541 25.2111 10.2235 25.7191 10.2235 26.1421C10.2235 26.3601 10.3494 26.7241 10.8318 26.7241C11.7674 26.7241 11.9618 25.5061 11.9316 25.2471C11.8872 25.2381 11.859 25.2121 11.5932 25.2111Z" fill="#E9ECE0"/>
<path d="M23.3652 23.144C22.5182 23.144 22.3551 24.101 22.3551 24.202H24.0802C24.0802 24.125 24.2424 23.144 23.3652 23.144Z" fill="#E9ECE0"/>
<path d="M44.5123 23.311C43.8285 23.311 43.2877 24.099 43.2887 25.296C43.2887 26.026 43.5505 26.494 44.1105 26.494C44.9524 26.494 45.3583 25.403 45.3583 24.59C45.3583 23.693 45.0713 23.311 44.5123 23.311Z" fill="#E9ECE0"/>
<path d="M47.9425 27.268C47.9073 27.206 47.8579 27.158 47.7955 27.123C47.733 27.088 47.6696 27.071 47.6031 27.071C47.5387 27.071 47.4732 27.089 47.4108 27.123C47.3483 27.155 47.299 27.205 47.2637 27.268C47.2285 27.331 47.2104 27.398 47.2104 27.463C47.2104 27.53 47.2285 27.596 47.2617 27.657C47.299 27.719 47.3463 27.766 47.4088 27.803C47.4712 27.837 47.5357 27.857 47.6031 27.857C47.6706 27.857 47.7371 27.837 47.7975 27.803C47.8599 27.768 47.9083 27.72 47.9445 27.657C47.9798 27.595 47.9959 27.53 47.9959 27.463C47.9959 27.397 47.9778 27.331 47.9425 27.268ZM47.724 27.72L47.6787 27.642C47.6434 27.579 47.6152 27.539 47.5941 27.524C47.5769 27.511 47.5568 27.505 47.5276 27.505H47.4813V27.719H47.3967V27.215H47.5729C47.6323 27.215 47.6766 27.22 47.7018 27.231C47.727 27.24 47.7492 27.257 47.7663 27.279C47.7834 27.301 47.7894 27.326 47.7894 27.353C47.7894 27.39 47.7753 27.421 47.7492 27.449C47.723 27.478 47.6867 27.49 47.6444 27.495C47.6646 27.503 47.6777 27.512 47.6877 27.521C47.7089 27.542 47.733 27.572 47.7622 27.62L47.8247 27.72H47.724Z" fill="#E9ECE0"/>
<path d="M36.7878 25.2111C35.6488 25.2111 35.4182 25.7191 35.4182 26.1421C35.4182 26.3601 35.5431 26.7241 36.0265 26.7241C36.9621 26.7241 37.1554 25.5061 37.1262 25.2471C37.0809 25.2381 37.0527 25.2121 36.7878 25.2111Z" fill="#E9ECE0"/>
<path d="M47.6897 27.318C47.6817 27.308 47.6706 27.3 47.6555 27.293C47.6384 27.288 47.6132 27.283 47.5729 27.283V27.284H47.4813V27.436H47.581C47.6283 27.436 47.6595 27.43 47.6787 27.415C47.6938 27.4 47.7028 27.381 47.7028 27.359C47.7028 27.342 47.6988 27.332 47.6897 27.318Z" fill="#E9ECE0"/>
</g>
<defs>
<clipPath id="clip0_1_88">
<rect width="48.7719" height="48.428" fill="white" transform="translate(0.492889)"/>
</clipPath>
</defs>
</svg>
