<svg width="52" height="51" viewBox="0 0 52 51" fill="none" xmlns="http://www.w3.org/2000/svg">
<g clip-path="url(#clip0_1_116)">
<path d="M9.95286 20.604C9.78669 20.273 9.52384 20 9.19753 19.795C8.85713 19.588 8.4553 19.443 7.99606 19.357C7.52877 19.273 6.98896 19.235 6.36355 19.229L3.47619 19.231C3.17607 19.235 2.882 19.467 2.8115 19.755L0.8688 28.157C0.798303 28.441 0.986631 28.679 1.28675 28.679H2.6695C2.96961 28.679 3.26671 28.448 3.33318 28.157L3.80752 26.117C3.87097 25.833 4.16706 25.596 4.4702 25.596H4.86599C6.55691 25.594 7.86615 25.251 8.80678 24.564C9.75245 23.876 10.2187 22.967 10.2187 21.841C10.2177 21.348 10.1362 20.934 9.95286 20.604ZM6.97083 23.349C6.55288 23.653 5.97179 23.805 5.2225 23.805H4.88412C4.58299 23.805 4.39869 23.569 4.46415 23.281L4.88009 21.497C4.9385 21.211 5.24164 20.974 5.53873 20.976L5.99193 20.973C6.52066 20.973 6.9245 21.064 7.19441 21.24C7.46129 21.414 7.59523 21.691 7.59322 22.058C7.60128 22.616 7.38676 23.045 6.97083 23.349Z" fill="#E9ECE0"/>
<path d="M49.3708 19.887L49.2842 19.913L49.1684 19.929L49.0264 19.907L48.9539 19.837L48.9207 19.727L48.9186 19.562V18.951H49.3809V18.762H48.9186V18.381H48.69V18.762H48.5349V18.951H48.69V19.662L48.7968 20.014L49.111 20.126L49.2429 20.115L49.3829 20.088V19.887H49.3708Z" fill="#E9ECE0"/>
<path d="M51.515 18.859L51.1846 18.724L50.9409 18.773L50.6932 18.939L50.5492 18.78L50.3155 18.725L50.0909 18.774L49.8784 18.91V18.762H49.6538V20.097H49.8774V19.1L50.0657 18.984L50.2531 18.938L50.4061 18.965L50.4817 19.042L50.5149 19.17L50.526 19.335V20.098H50.7506V19.244L50.7465 19.173L50.7425 19.108L50.9339 18.987L51.1232 18.94L51.2712 18.967L51.3518 19.044L51.38 19.173L51.3951 19.336V20.099H51.6207V19.232L51.515 18.859Z" fill="#E9ECE0"/>
<path d="M16.6209 21.8049C16.0992 21.5129 15.2754 21.3669 14.1495 21.3669C13.5925 21.3669 13.0376 21.4099 12.4767 21.4959C12.0627 21.5589 12.0225 21.5709 11.7677 21.6259C11.242 21.7399 11.1594 22.2609 11.1594 22.2609L10.9902 22.9519C10.8945 23.3929 11.1503 23.3759 11.2571 23.3389C11.4867 23.2709 11.6146 23.2009 12.0839 23.0969C12.532 22.9959 13.0044 22.9199 13.379 22.9249C13.9319 22.9249 14.3549 22.9829 14.6369 23.1009C14.9149 23.2209 15.0538 23.4269 15.0538 23.7249L15.0297 23.9189L14.8303 24.0409C14.0457 24.0899 13.4787 24.1619 12.7909 24.2609C12.1181 24.3539 11.528 24.5169 11.0375 24.7399C10.5108 24.9699 10.12 25.2789 9.84712 25.6719C9.58326 26.0669 9.45132 26.5459 9.45132 27.1079C9.45132 27.6369 9.64267 28.0739 10.0143 28.4119C10.3879 28.7439 10.8814 28.9059 11.4716 28.9059C11.8452 28.9039 12.1342 28.8749 12.3397 28.8259L13.0094 28.5969L13.5764 28.2849L14.0981 27.9429L14.1051 27.9529L14.0528 28.1729L14.0498 28.1819V28.1839C13.9934 28.4519 14.1565 28.6719 14.4194 28.6979L14.4244 28.7039H14.4486H15.509H15.7084L15.7266 28.6959C16.0025 28.6639 16.2613 28.4439 16.3218 28.1819L17.3299 23.8489L17.3823 23.4959L17.4064 23.1649C17.4105 22.5509 17.1436 22.0959 16.6209 21.8049ZM14.3912 26.6769L14.1756 26.9589L13.6318 27.2379C13.376 27.3409 13.1333 27.3929 12.9087 27.3929C12.5683 27.3929 12.3014 27.3439 12.1212 27.2439L11.8543 26.7289C11.8543 26.4499 11.9187 26.2289 12.0567 26.0589L12.6428 25.6629C12.8936 25.5789 13.1998 25.5079 13.5543 25.4589C13.8705 25.4199 14.4949 25.3489 14.5765 25.3469L14.6721 25.5139C14.653 25.6089 14.4758 26.3449 14.3912 26.6769Z" fill="#E9ECE0"/>
<path d="M41.736 21.8109C41.2113 21.5189 40.3885 21.3719 39.2656 21.3719C38.7086 21.3719 38.1527 21.4149 37.5938 21.5039C37.1789 21.5639 37.1376 21.5769 36.8818 21.6309C36.3571 21.7439 36.2755 22.2669 36.2755 22.2669L36.1063 22.9569C36.0116 23.3979 36.2614 23.3779 36.3782 23.3439C36.6088 23.2759 36.7327 23.2089 37.198 23.1009C37.6441 23.0009 38.1205 22.9269 38.4962 22.9289C39.047 22.9289 39.47 22.9879 39.751 23.1059C40.031 23.2259 40.1679 23.4339 40.1679 23.7289L40.1468 23.9219L39.9494 24.0469C39.1568 24.0939 38.5888 24.1659 37.908 24.2649C37.2373 24.3579 36.6451 24.5199 36.1536 24.7439C35.6289 24.9749 35.2331 25.2839 34.9632 25.6779C34.6964 26.0729 34.5664 26.5509 34.5664 27.1079C34.5664 27.6409 34.7558 28.0779 35.1324 28.4139C35.5081 28.7449 35.9965 28.9109 36.5867 28.9109C36.9583 28.9069 37.2473 28.8829 37.4538 28.8299L38.1215 28.6039L38.6935 28.2919L39.2112 27.9459L39.2203 27.9569L39.1729 28.1789L39.1679 28.1829L39.1699 28.1869C39.1075 28.4549 39.2716 28.6769 39.5375 28.7009L39.5395 28.7059H39.5637C39.7379 28.7059 40.3402 28.7059 40.6272 28.7059H40.8226L40.8437 28.6989C41.1166 28.6659 41.3745 28.4459 41.4319 28.1809L42.443 23.8539L42.4964 23.4989L42.5256 23.1669C42.5266 22.5549 42.2627 22.1019 41.736 21.8109ZM39.5113 26.6829L39.2867 26.9679L38.7479 27.2449C38.4921 27.3469 38.2484 27.3999 38.0278 27.3999C37.6764 27.3999 37.4165 27.3499 37.2413 27.2499L36.9714 26.7369C36.9714 26.4569 37.0369 26.2379 37.1688 26.0649C37.3027 25.9019 37.5072 25.7679 37.761 25.6699C38.0087 25.5859 38.3149 25.5179 38.6714 25.4669C38.9856 25.4279 39.608 25.3549 39.6886 25.3539L39.7863 25.5209C39.7722 25.6159 39.5939 26.3489 39.5113 26.6829Z" fill="#E9ECE0"/>
<path d="M35.064 20.635C34.8907 20.302 34.6309 20.033 34.3026 19.823C33.9662 19.615 33.5674 19.469 33.1011 19.385C32.6429 19.304 32.096 19.26 31.4747 19.259L28.5833 19.261C28.2821 19.266 27.9931 19.498 27.9236 19.783L25.9789 28.189C25.9084 28.474 26.1018 28.71 26.3958 28.71L27.7806 28.708C28.0747 28.71 28.3758 28.476 28.4453 28.188L28.9136 26.147C28.9821 25.863 29.2792 25.624 29.5783 25.626H29.9741C31.667 25.626 32.9793 25.28 33.9239 24.595C34.8575 23.902 35.3298 22.995 35.3298 21.868C35.3248 21.377 35.2392 20.962 35.064 20.635ZM32.0819 23.384C31.665 23.682 31.0829 23.834 30.3376 23.834H29.9932C29.6961 23.837 29.5038 23.597 29.5702 23.311L29.9892 21.53C30.0506 21.245 30.3507 21.006 30.6498 21.009L31.098 21.006C31.6297 21.009 32.0286 21.096 32.3005 21.272C32.5714 21.448 32.6993 21.724 32.7023 22.09C32.7053 22.648 32.4969 23.078 32.0819 23.384Z" fill="#E9ECE0"/>
<path d="M46.9206 19.85C46.984 19.563 46.8027 19.33 46.5057 19.334H45.2669C45.0131 19.334 44.7845 19.521 44.6727 19.751L44.6042 19.857L44.5418 20.129L42.8106 27.943L42.7542 28.183L42.7562 28.189C42.6988 28.446 42.8579 28.64 43.1037 28.677L43.1248 28.706H44.4109C44.6627 28.706 44.8993 28.516 45.0071 28.282L45.0736 28.182L46.9246 19.851L46.9206 19.85Z" fill="#E9ECE0"/>
<path d="M26.0172 21.472C25.6898 21.476 24.3595 21.472 24.3595 21.472C24.0614 21.472 23.6787 21.711 23.4893 21.996C23.4893 21.996 21.5094 25.37 21.317 25.709L21.0874 25.706L20.471 22.019C20.4026 21.729 20.0974 21.481 19.7177 21.481L18.479 21.483C18.1809 21.483 17.9976 21.719 18.0651 22.007C18.0651 22.007 19.0057 27.322 19.194 28.573C19.2817 29.263 19.183 29.386 19.183 29.386L17.9583 31.504C17.777 31.792 17.8747 32.027 18.1718 32.027L19.6039 32.025C19.902 32.025 20.2938 31.792 20.471 31.503L25.9799 22.251C25.9799 22.252 26.5096 21.461 26.0172 21.472Z" fill="#E9ECE0"/>
</g>
<defs>
<clipPath id="clip0_1_116">
<rect width="50.767" height="50.409" fill="white" transform="translate(0.853699)"/>
</clipPath>
</defs>
</svg>
