<svg width="49" height="48" viewBox="0 0 49 48" fill="none" xmlns="http://www.w3.org/2000/svg">
<g clip-path="url(#clip0_1_72)">
<path d="M19.4069 16.799L16.9587 31.065H20.8743L23.3246 16.799H19.4069Z" fill="#E9ECE0"/>
<path d="M13.6755 16.815L9.84049 26.544L9.43161 25.075C8.67527 23.305 6.52813 20.763 4.00735 19.161L7.51408 31.058L11.6573 31.051L17.8238 16.812L13.6755 16.815Z" fill="#E9ECE0"/>
<path d="M7.94512 17.836C7.71751 16.967 7.05786 16.708 6.23909 16.677H0.168275L0.11792 16.961C4.84224 18.099 7.96828 20.841 9.26543 24.138L7.94512 17.836Z" fill="#E9ECE0"/>
<path d="M31.2606 19.534C32.5416 19.514 33.4701 19.792 34.1912 20.08L34.5447 20.245L35.0744 17.153C34.299 16.864 33.0834 16.554 31.5667 16.554C27.6974 16.554 24.9702 18.489 24.949 21.262C24.9239 23.311 26.8917 24.455 28.3782 25.138C29.904 25.838 30.4156 26.283 30.4085 26.908C30.3965 27.863 29.192 28.301 28.067 28.301C26.499 28.301 25.6661 28.086 24.38 27.554L23.8755 27.326L23.3246 30.519C24.241 30.918 25.932 31.261 27.6874 31.279C31.8034 31.279 34.4782 29.367 34.5064 26.404C34.5236 24.783 33.4792 23.546 31.2162 22.531C29.8466 21.869 29.0087 21.429 29.0167 20.761C29.0167 20.168 29.7277 19.534 31.2606 19.534Z" fill="#E9ECE0"/>
<path d="M45.1233 16.8149H42.098C41.1584 16.8149 40.4594 17.0689 40.0465 17.9989L34.2325 31.0729H38.3445C38.3445 31.0729 39.0152 29.3149 39.1673 28.9299C39.6175 28.9299 43.6127 28.9359 44.1817 28.9359C44.2985 29.4339 44.659 31.0729 44.659 31.0729H48.2917L45.1233 16.8149ZM40.2943 26.0099C40.6165 25.1909 41.8543 22.0229 41.8543 22.0229C41.8331 22.0619 42.1735 21.1979 42.3759 20.6609L42.6398 21.8909C42.6398 21.8909 43.3901 25.2969 43.5472 26.0099H40.2943Z" fill="#E9ECE0"/>
</g>
<defs>
<clipPath id="clip0_1_72">
<rect width="48.1737" height="47.834" fill="white" transform="translate(0.11792)"/>
</clipPath>
</defs>
</svg>
